{"title":"MSG - The Messenger(2015) 1080p WEBHD AAC 2.0[TeamAHD][Parth]","uid":11972327,"size":3112911833,"categoryP":"video","categoryS":"hd___movies","magnet":"?xt=urn:btih:64a34c62526c6cdb8f761898c09ba821987292e4&amp;dn=MSG+-+The+Messenger%282015%29+1080p+WEBHD+AAC+2.0%5BTeamAHD%5D%5BParth%5D&amp;tr=udp%3A%2F%2Ftracker.openbittorrent.com%3A80&amp;tr=udp%3A%2F%2Fopen.demonii.com%3A1337&amp;tr=udp%3A%2F%2Ftracker.coppersurfer.tk%3A6969&amp;tr=udp%3A%2F%2Fexodus.desync.com%3A6969","seeders":1,"leechers":0,"uploader":"Urmit","files":7,"time":1432888242,"description":"[center]\n[img]http://s27.postimg.org/9tvkc8fab/ahd.png[/img]\n\n[img]http://upload.wikimedia.org/wikipedia/en/4/45/MSG_The_Messenger_of_God_Poster.jpg[/img]\n\n[img]http://allsharehd.com/Smileys/default/Info.png[/img]\n\n[code]\nComplete name : H:MSG - The Messenger(2015)Untouched 1080p WEBHD-AAC2.0-Team Telly ExclusiveMSG - The Messenger(2015) 1080p WEBHD AAC 2.0[TeamAHD][Parth].mkv\nFormat : Matroska\nFormat version : Version 2\nFile size : 2.90 GiB\nDuration : 3h 0mn\nOverall bit rate : 2 301 Kbps\nEncoded date : UTC 2015-05-28 22:27:35\nWriting application : mkvmerge v7.7.0 ('Six Voices') 32bit built on Feb 28 2015 23:23:00\nWriting library : libebml v1.3.1 + libmatroska v1.4.2\nDURATION : 03:00:20.545000000\nNUMBER_OF_FRAMES : 310668\nNUMBER_OF_BYTES : 519386174\n_STATISTICS_WRITING_APP : mkvmerge v7.7.0 ('Six Voices') 32bit built on Feb 28 2015 23:23:00\n_STATISTICS_WRITING_DATE_UTC : 2015-05-28 22:27:35\n_STATISTICS_TAGS : BPS DURATION NUMBER_OF_FRAMES NUMBER_OF_BYTES\n\nVideo\nID : 1\nFormat : AVC\nFormat/Info : Advanced Video Codec\nFormat profile : &lt;a class=&quot;__cf_email__&quot; href=&quot;/cdn-cgi/l/email-protection&quot; data-cfemail=&quot;763e1f111e363a425847&quot;&gt;[email&amp;#160;protected]&lt;/a&gt;&lt;script data-cfhash='f9e31' type=&quot;text/javascript&quot;&gt;\n/* &lt;![CDATA[ */!function(){try{var t=&quot;currentScript&quot;in document?document.currentScript:function(){for(var t=document.getElementsByTagName(&quot;script&quot;),e=t.length;e--;)if(t[e].getAttribute(&quot;data-cfhash&quot;))return t[e]}();if(t&amp;&amp;t.previousSibling){var e,r,n,i,c=t.previousSibling,a=c.getAttribute(&quot;data-cfemail&quot;);if(a){for(e=&quot;&quot;,r=parseInt(a.substr(0,2),16),n=2;a.length-n;n+=2)i=parseInt(a.substr(n,2),16)^r,e+=String.fromCharCode(i);e=document.createTextNode(e),c.parentNode.replaceChild(e,c)}t.parentNode.removeChild(t);}}catch(u){}}()/* ]]&gt; */&lt;/script&gt;\nFormat settings, CABAC : Yes\nFormat settings, ReFrames : 5 frames\nCodec ID : V_MPEG4/ISO/AVC\nDuration : 3h 0mn\nBit rate : 1 916 Kbps\nWidth : 1 920 pixels\nHeight : 816 pixels\nDisplay aspect ratio : 2.35:1\nFrame rate mode : Constant\nFrame rate : 24.000 fps\nColor space : YUV\nChroma subsampling : 4:2:0\nBit depth : 8 bits\nScan type : Progressive\nBits/(Pixel*Frame) : 0.051\nStream size : 2.36 GiB (81%)\nWriting library : x264 core 146 r2538 121396c\nEncoding settings : cabac=1 / ref=5 / deblock=1:0:0 / analyse=0x3:0x133 / me=umh / subme=9 / psy=1 / psy_rd=1.00:0.15 / mixed_ref=1 / me_range=24 / chroma_me=1 / trellis=2 / 8x8dct=1 / cqm=0 / deadzone=21,11 / fast_pskip=0 / chroma_qp_offset=-3 / threads=36 / lookahead_threads=3 / sliced_threads=0 / nr=0 / decimate=1 / interlaced=0 / bluray_compat=0 / constrained_intra=0 / bframes=3 / b_pyramid=2 / b_adapt=2 / b_bias=0 / direct=3 / weightb=1 / open_gop=0 / weightp=2 / keyint=230 / keyint_min=23 / scenecut=40 / intra_refresh=0 / rc_lookahead=60 / rc=2pass / mbtree=1 / bitrate=1916 / ratetol=1.0 / qcomp=0.60 / qpmin=10 / qpmax=51 / qpstep=4 / cplxblur=20.0 / qblur=0.5 / vbv_maxrate=24000 / vbv_bufsize=24000 / nal_hrd=none / filler=0 / ip_ratio=1.40 / aq=1:1.00\nDefault : Yes\nForced : No\nColor range : Limited\nColor primaries : BT.709\nTransfer characteristics : BT.709\nMatrix coefficients : BT.709\n\nAudio\nID : 2\nFormat : AC-3\nFormat/Info : Audio Coding 3\nMode extension : CM (complete main)\nFormat settings, Endianness : Big\nCodec ID : A_AC3\nDuration : 3h 0mn\nBit rate mode : Constant\nBit rate : 384 Kbps\nChannel(s) : 2 channels\nChannel positions : Front: L R\nSampling rate : 44.1 KHz\nBit depth : 16 bits\nCompression mode : Lossy\nStream size : 495 MiB (17%)\nDefault : Yes\nForced : No[/code]\n\n[img]http://allsharehd.com/Smileys/default/Screen_Shots.png[/img]\n\n[img]http://i.imgur.com/JJ0X0pu.jpg[/img]\n[img]http://i.imgur.com/9YYUux0.jpg[/img]\n[img]http://i.imgur.com/TpZAy4M.jpg[/img]\n[img]http://i.imgur.com/TpZAy4M.jpg[/img][/center]","torrent":{"xt":"urn:btih:64a34c62526c6cdb8f761898c09ba821987292e4","amp;dn":"MSG+-+The+Messenger%282015%29+1080p+WEBHD+AAC+2.0%5BTeamAHD%5D%5BParth%5D","amp;tr":["udp%3A%2F%2Ftracker.openbittorrent.com%3A80","udp%3A%2F%2Fopen.demonii.com%3A1337","udp%3A%2F%2Ftracker.coppersurfer.tk%3A6969","udp%3A%2F%2Fexodus.desync.com%3A6969"],"infoHash":"64a34c62526c6cdb8f761898c09ba821987292e4","infoHashBuffer":{"type":"Buffer","data":[100,163,76,98,82,108,108,219,143,118,24,152,192,155,168,33,152,114,146,228]},"announce":[],"urlList":[]}}